<?xml version="1.0" encoding="UTF-8" standalone="no"?><!DOCTYPE svg PUBLIC "-//W3C//DTD SVG 1.1//EN" "http://www.w3.org/Graphics/SVG/1.1/DTD/svg11.dtd">
<svg width="100%" height="100%" viewBox="0 0 483 573" version="1.1"
  xmlns="http://www.w3.org/2000/svg"
  xmlns:xlink="http://www.w3.org/1999/xlink" xml:space="preserve"
  xmlns:serif="http://www.serif.com/" style="fill-rule:evenodd;clip-rule:evenodd;stroke-linejoin:round;stroke-miterlimit:2;">
  <defs>
    <linearGradient id="_Linear1" x1="0" y1="0" x2="1" y2="0" gradientUnits="userSpaceOnUse" gradientTransform="matrix(257.631,-210.11,228.012,279.583,103.893,380.605)">
      <stop offset="0" style="stop-color:#004e6a;stop-opacity:1"/>
      <stop offset="0.54" style="stop-color:#03607d;stop-opacity:1"/>
      <stop offset="1" style="stop-color:#0ea1c4;stop-opacity:1"/>
    </linearGradient>
    <linearGradient id="_Linear2" x1="0" y1="0" x2="1" y2="0" gradientUnits="userSpaceOnUse" gradientTransform="matrix(2.24693,-259.488,-259.488,-2.24693,240.227,537.168)">
      <stop offset="0" style="stop-color:#004e6a;stop-opacity:1"/>
      <stop offset="0.55" style="stop-color:#0a89a9;stop-opacity:1"/>
      <stop offset="1" style="stop-color:#0ea1c4;stop-opacity:1"/>
    </linearGradient>
  </defs>
  <g>
    <path d="M235.415,43.195l-119.186,345.174c-1.867,6.527 2.612,12.963 9.143,13.798c-6.572,0.654 234.581,6.18 228.049,5.35c6.574,-0.656 11.22,-6.994 9.517,-13.573l-106.385,-350.488c-2.796,-10.805 -18.073,-10.995 -21.138,-0.261" style="fill:url(#_Linear1);fill-rule:nonzero;"/>
    <path d="M371.094,408.548c-0.621,71.655 -59.212,129.241 -130.867,128.62c-71.656,-0.621 -129.242,-59.212 -128.621,-130.867c0.62,-71.658 59.212,-129.242 130.868,-128.621c71.655,0.622 129.241,59.212 128.62,130.868" style="fill:url(#_Linear2);fill-rule:nonzero;"/>
    <path d="M324.436,408.143c-0.398,45.887 -37.918,82.766 -83.805,82.368c-45.888,-0.397 -82.763,-37.92 -82.366,-83.807c0.398,-45.887 37.916,-82.764 83.803,-82.366c45.89,0.396 82.765,37.918 82.368,83.805" style="fill:#0ea1c4;fill-rule:nonzero;"/>
  </g>
  
</svg>