<?xml version="1.0" encoding="UTF-8" standalone="no"?><!DOCTYPE svg PUBLIC "-//W3C//DTD SVG 1.1//EN" "http://www.w3.org/Graphics/SVG/1.1/DTD/svg11.dtd"><svg width="100%" height="100%" viewBox="0 0 16277 16277" version="1.1" xmlns="http://www.w3.org/2000/svg" xmlns:xlink="http://www.w3.org/1999/xlink" xml:space="preserve" xmlns:serif="http://www.serif.com/" style="fill-rule:evenodd;clip-rule:evenodd;stroke-linejoin:round;stroke-miterlimit:2;"><g><path d="M11893.4,2879.86l242.974,-113.249c9.107,-4.237 10.217,-16.743 2.004,-22.503l-219.6,-153.826c-8.203,-5.751 -19.575,-0.443 -20.471,9.554l-23.374,267.075c-0.885,10.006 9.369,17.195 18.467,12.949Z" style="fill:#fff;fill-rule:nonzero;stroke:#fff;stroke-width:3.13px;"/><path d="M11011.5,2358.19l222.284,-149.89c8.373,-5.67 7.458,-18.141 -1.56,-22.506l-240.953,-117.607c-9.026,-4.373 -19.403,2.62 -18.659,12.571l18.66,267.488c0.653,10.044 11.936,15.512 20.228,9.944Z" style="fill:#fff;fill-rule:nonzero;stroke:#fff;stroke-width:3.13px;"/><path d="M10058.7,1980.84l196.204,-182.864c7.33,-6.859 4.552,-18.956 -5.086,-21.93l-256.435,-78.432c-9.535,-2.874 -18.687,5.665 -16.492,15.388l60.34,261.222c2.278,9.804 14.138,13.476 21.469,6.616Z" style="fill:#fff;fill-rule:nonzero;stroke:#fff;stroke-width:3.13px;"/><path d="M9058.85,1757.27l165.037,-211.341c6.216,-7.936 1.503,-19.548 -8.466,-20.849l-265.484,-37.389c-9.876,-1.394 -17.625,8.501 -13.874,17.736l100.355,248.64c3.844,9.326 16.306,11.044 22.432,3.203Z" style="fill:#fff;fill-rule:nonzero;stroke:#fff;stroke-width:3.13px;"/><path d="M7016.04,1789.17l91.769,-252.062c3.428,-9.36 -4.658,-18.98 -14.481,-17.246l-264.124,46.477c-9.912,1.829 -14.13,13.506 -7.642,21.22l172.261,205.496c6.394,7.624 18.787,5.475 22.217,-3.885Z" style="fill:#fff;fill-rule:nonzero;stroke:#fff;stroke-width:3.13px;"/><path d="M6023.54,2043.77l51.242,-263.147c1.857,-9.792 -7.587,-18.009 -17.016,-14.806l-253.562,87.271c-9.52,3.296 -11.887,15.492 -4.315,22.082l202.324,176.06c7.573,6.592 19.38,2.426 21.327,-7.46Z" style="fill:#fff;fill-rule:nonzero;stroke:#fff;stroke-width:3.13px;"/><path d="M5083.13,2450.6l9.353,-267.946c0.38,-9.952 -10.233,-16.582 -19.084,-11.917l-236.778,125.932c-8.852,4.666 -9.281,17.105 -0.809,22.391l227.428,142.198c8.471,5.286 19.512,-0.523 19.89,-10.658Z" style="fill:#fff;fill-rule:nonzero;stroke:#fff;stroke-width:3.13px;"/><path d="M4217.93,2999.6l-32.606,-266.114c-1.278,-9.923 -12.781,-14.88 -20.872,-8.755l-214.065,161.268c-7.998,6.031 -6.493,18.529 2.69,22.33l246.855,104.842c9.186,3.985 19.184,-3.555 17.998,-13.571Z" style="fill:#fff;fill-rule:nonzero;stroke:#fff;stroke-width:3.13px;"/><path d="M2795.99,4466.63l-113.342,-243.065c-4.145,-9.017 -16.65,-10.127 -22.402,-1.924l-153.834,219.609c-5.751,8.204 -0.443,19.576 9.564,20.462l267.074,23.375c9.997,0.894 17.186,-9.359 12.94,-18.457Z" style="fill:#fff;fill-rule:nonzero;stroke:#fff;stroke-width:3.13px;"/><path d="M2274.31,5348.57l-149.984,-222.374c-5.576,-8.283 -18.038,-7.377 -22.412,1.65l-117.598,240.943c-4.384,9.036 2.62,19.404 12.571,18.66l267.488,-18.66c10.044,-0.654 15.511,-11.935 9.935,-20.219Z" style="fill:#fff;fill-rule:nonzero;stroke:#fff;stroke-width:3.13px;"/><path d="M1897.01,6301.24l-182.893,-196.177c-6.848,-7.34 -19.028,-4.476 -21.947,5.105l-78.414,256.416c-2.919,9.58 5.611,18.743 15.379,16.501l261.222,-60.339c9.768,-2.242 13.502,-14.166 6.653,-21.506Z" style="fill:#fff;fill-rule:nonzero;stroke:#fff;stroke-width:3.13px;"/><path d="M1673.36,7301.19l-211.269,-165.111c-7.944,-6.208 -19.548,-1.504 -20.971,8.401l-37.295,265.574c-1.412,9.898 8.492,17.635 17.756,13.856l248.658,-100.372c9.261,-3.779 10.962,-16.222 3.121,-22.348Z" style="fill:#fff;fill-rule:nonzero;stroke:#fff;stroke-width:3.13px;"/><path d="M1705.17,9343.91l-251.923,-91.725c-9.387,-3.401 -18.98,4.657 -17.263,14.499l46.521,264.076c1.718,9.843 13.504,14.131 21.175,7.691l205.495,-172.26c7.669,-6.442 5.484,-18.799 -4.005,-22.281Z" style="fill:#fff;fill-rule:nonzero;stroke:#fff;stroke-width:3.13px;"/><path d="M1959.93,10336.4l-263.2,-51.205c-9.794,-1.856 -18.02,7.596 -14.809,17.017l87.28,253.553c3.306,9.529 15.538,11.839 22.121,4.294l175.91,-202.376c6.583,-7.544 2.565,-19.336 -7.302,-21.283Z" style="fill:#fff;fill-rule:nonzero;stroke:#fff;stroke-width:3.13px;"/><path d="M2366.79,11276.9l-267.974,-9.38c-10.007,-0.36 -16.655,10.27 -11.953,19.121l125.858,236.762c4.693,8.842 17.225,9.287 22.538,0.787l142.125,-227.371c5.294,-8.499 -0.587,-19.558 -10.594,-19.919Z" style="fill:#fff;fill-rule:nonzero;stroke:#fff;stroke-width:3.13px;"/><path d="M2915.74,12142.1l-266.14,32.652c-9.941,1.222 -14.835,12.753 -8.803,20.752l161.325,214.156c6.042,8.008 18.474,6.495 22.384,-2.745l104.798,-246.79c3.919,-9.23 -3.621,-19.229 -13.564,-18.025Z" style="fill:#fff;fill-rule:nonzero;stroke:#fff;stroke-width:3.13px;"/><path d="M4382.73,13564l-243.011,113.286c-9.098,4.228 -10.18,16.706 -1.967,22.466l219.626,153.816c8.194,5.743 19.549,0.453 20.425,-9.525l23.411,-267.112c0.859,-9.979 -9.395,-17.168 -18.484,-12.931Z" style="fill:#fff;fill-rule:nonzero;stroke:#fff;stroke-width:3.13px;"/><path d="M5264.66,14085.7l-222.319,149.909c-8.302,5.613 -7.432,18.113 1.568,22.497l240.98,117.578c9.008,4.392 19.402,-2.62 18.705,-12.599l-18.67,-267.497c-0.697,-9.979 -11.964,-15.483 -20.264,-9.888Z" style="fill:#fff;fill-rule:nonzero;stroke:#fff;stroke-width:3.13px;"/><path d="M6217.33,14463l-196.13,182.845c-7.322,6.831 -4.514,19.049 5.076,21.977l256.408,78.423c9.572,2.929 18.743,-5.611 16.503,-15.379l-60.295,-261.268c-2.251,-9.759 -14.24,-13.428 -21.562,-6.598Z" style="fill:#fff;fill-rule:nonzero;stroke:#fff;stroke-width:3.13px;"/><path d="M7217.3,14686.7l-165.103,211.277c-6.162,7.897 -1.476,19.519 8.439,20.913l265.529,37.343c9.915,1.393 17.627,-8.483 13.874,-17.774l-100.409,-248.602c-3.752,-9.309 -16.159,-11.046 -22.33,-3.157Z" style="fill:#fff;fill-rule:nonzero;stroke:#fff;stroke-width:3.13px;"/><path d="M9260.08,14654.8l-91.743,251.942c-3.428,9.415 4.62,19.019 14.49,17.291l264.066,-46.53c9.87,-1.746 14.16,-13.515 7.718,-21.203l-172.333,-205.421c-6.441,-7.669 -18.78,-5.502 -22.198,3.921Z" style="fill:#fff;fill-rule:nonzero;stroke:#fff;stroke-width:3.13px;"/><path d="M10252.6,14400.1l-51.196,263.21c-1.911,9.831 7.551,18.047 17.015,14.789l253.536,-87.261c9.464,-3.258 11.867,-15.566 4.303,-22.148l-202.339,-175.93c-7.555,-6.572 -19.408,-2.491 -21.319,7.34Z" style="fill:#fff;fill-rule:nonzero;stroke:#fff;stroke-width:3.13px;"/><path d="M11193,13993.2l-9.389,267.964c-0.352,10.016 10.261,16.665 19.121,11.953l236.752,-125.848c8.851,-4.703 9.287,-17.225 0.788,-22.538l-227.363,-142.116c-8.499,-5.312 -19.557,0.569 -19.909,10.585Z" style="fill:#fff;fill-rule:nonzero;stroke:#fff;stroke-width:3.13px;"/><path d="M12058.2,13444.3l32.643,266.131c1.214,9.951 12.744,14.844 20.753,8.821l214.156,-161.342c8.008,-6.023 6.485,-18.465 -2.755,-22.375l-246.79,-104.798c-9.23,-3.919 -19.228,3.621 -18.007,13.563Z" style="fill:#fff;fill-rule:nonzero;stroke:#fff;stroke-width:3.13px;"/><path d="M13480.2,11977.2l113.277,243.02c4.2,9.126 16.724,10.18 22.466,1.968l153.743,-219.534c5.833,-8.306 0.498,-19.613 -9.444,-20.528l-267.112,-23.392c-10.033,-0.821 -17.221,9.433 -12.93,18.466Z" style="fill:#fff;fill-rule:nonzero;stroke:#fff;stroke-width:3.13px;"/><path d="M14001.9,11095.3l149.919,222.292c5.604,8.311 18.058,7.487 22.433,-1.503l117.624,-241.027c4.374,-8.989 -2.629,-19.375 -12.609,-18.695l-267.45,18.641c-10.071,0.773 -15.522,11.982 -9.917,20.292Z" style="fill:#fff;fill-rule:nonzero;stroke:#fff;stroke-width:3.13px;"/><path d="M14379.1,10142.7l182.908,196.047c6.841,7.331 18.985,4.579 21.958,-5.04l78.442,-256.426c2.883,-9.525 -5.665,-18.688 -15.378,-16.484l-261.269,60.277c-9.804,2.296 -13.492,14.304 -6.661,21.626Z" style="fill:#fff;fill-rule:nonzero;stroke:#fff;stroke-width:3.13px;"/><path d="M14602.7,9142.73l211.341,165.037c7.897,6.181 19.43,1.569 20.895,-8.419l37.353,-265.521c1.366,-9.905 -8.501,-17.626 -17.765,-13.901l-248.683,100.493c-9.274,3.715 -11.029,16.14 -3.141,22.311Z" style="fill:#fff;fill-rule:nonzero;stroke:#fff;stroke-width:3.13px;"/><path d="M14570.9,7099.96l251.977,91.688c9.388,3.456 19.019,-4.622 17.264,-14.462l-46.566,-264.03c-1.664,-9.935 -13.424,-14.234 -21.149,-7.755l-205.429,172.324c-7.625,6.394 -5.495,18.77 3.903,22.235Z" style="fill:#fff;fill-rule:nonzero;stroke:#fff;stroke-width:3.13px;"/><path d="M14316.2,6107.39l263.156,51.252c9.839,1.901 18.047,-7.551 14.797,-17.025l-87.252,-253.545c-3.258,-9.483 -15.52,-11.914 -22.111,-4.341l-175.984,202.396c-6.592,7.573 -2.446,19.362 7.394,21.263Z" style="fill:#fff;fill-rule:nonzero;stroke:#fff;stroke-width:3.13px;"/><path d="M13909.4,5166.96l267.984,9.389c9.961,0.389 16.591,-10.223 11.907,-19.093l-125.885,-236.732c-4.675,-8.861 -17.161,-9.336 -22.547,-0.779l-142.088,227.352c-5.287,8.471 0.578,19.567 10.629,19.863Z" style="fill:#fff;fill-rule:nonzero;stroke:#fff;stroke-width:3.13px;"/><path d="M13360.4,4301.78l266.104,-32.615c9.96,-1.241 14.871,-12.79 8.848,-20.78l-161.352,-214.147c-6.041,-8.008 -18.501,-6.466 -22.42,2.782l-104.762,246.753c-3.928,9.24 3.612,19.239 13.582,18.007Z" style="fill:#fff;fill-rule:nonzero;stroke:#fff;stroke-width:3.13px;"/><path d="M14486.4,8123.2l417.111,231.281c8.777,4.857 19.522,-1.6 19.312,-11.579l-8.273,-476.866c-0.129,-10.081 -11.091,-16.144 -19.649,-11.013l-408.837,245.585c-8.658,5.215 -8.441,17.735 0.336,22.592Z" style="fill:#fff;fill-rule:nonzero;stroke:#fff;stroke-width:3.13px;"/><path d="M1789.68,8320.65l-417.11,-231.262c-8.731,-4.83 -19.485,1.618 -19.349,11.598l8.349,476.958c0.136,9.978 11.099,16.059 19.692,10.91l408.856,-245.605c8.604,-5.158 8.386,-17.678 -0.438,-22.599Z" style="fill:#fff;fill-rule:nonzero;stroke:#fff;stroke-width:3.13px;"/><path d="M8236.81,14570.3l-231.291,417.121c-4.857,8.757 1.591,19.493 11.616,19.33l476.875,-8.265c10.017,-0.174 16.097,-11.136 10.93,-19.731l-245.586,-408.855c-5.168,-8.594 -17.687,-8.378 -22.544,0.4Z" style="fill:#fff;fill-rule:nonzero;stroke:#fff;stroke-width:3.13px;"/><path d="M12400.1,3825.74l709.39,-203.288c9.667,-2.792 12.661,-14.925 5.459,-21.881l-530.795,-512.712c-7.202,-6.956 -19.225,-3.544 -21.68,6.214l-178.585,716.008c-2.455,9.758 6.545,18.451 16.211,15.659Z" style="fill:#12313f;fill-rule:nonzero;"/><path d="M3741.91,3959.82l-203.369,-709.304c-2.747,-9.714 -14.862,-12.727 -21.827,-5.516l-512.729,530.814c-6.957,7.203 -3.545,19.225 6.213,21.681l716.008,178.584c9.758,2.455 18.46,-6.554 15.704,-16.259Z" style="fill:#12313f;fill-rule:nonzero;"/><path d="M12550,12467.8l715.955,178.696c9.774,2.382 13.234,14.412 6.268,21.624l-512.729,530.814c-6.957,7.202 -19.119,4.181 -21.883,-5.458l-203.315,-709.418c-2.764,-9.639 5.938,-18.648 15.704,-16.258Z" style="fill:#12313f;fill-rule:nonzero;"/><path d="M3892.18,12633.8l-178.612,716.036c-2.428,9.729 -14.477,13.171 -21.679,6.214l-530.796,-512.711c-7.202,-6.956 -4.181,-19.118 5.459,-21.882l709.417,-203.316c9.639,-2.764 18.639,5.929 16.211,15.659Z" style="fill:#d71f26;fill-rule:nonzero;"/><path d="M14000.3,2554.7l-217.37,236.281l-20.969,-20.254c46.007,-67.439 66.672,-137.451 61.989,-210.043c-4.602,-72.695 -29.459,-130.738 -74.478,-174.223c-34.763,-33.579 -71.281,-50.931 -109.459,-51.963c-38.216,-1.07 -69.064,10.589 -92.404,34.752c-14.745,15.265 -24.375,32.394 -28.699,51.208c-5.589,25.558 -5.021,56.701 1.711,93.437c5.16,26.707 22.884,82.387 53.183,167.051c42.704,118.187 61.078,208.711 55.186,271.449c-6.23,62.413 -31.418,116.47 -75.473,162.079c-55.906,57.878 -126.62,85.882 -212.145,84.011c-85.452,-1.981 -162.996,-36.513 -232.562,-103.709c-21.821,-21.077 -40.272,-43.244 -55.463,-66.426c-15.19,-23.181 -31.526,-55.073 -48.989,-95.656c-9.767,-22.649 -20.006,-39.057 -30.56,-49.251c-8.878,-8.576 -21.501,-14.251 -37.994,-16.967c-16.413,-2.819 -34.452,-0.149 -54.065,7.88l-18.927,-18.282l252.57,-261.479l18.927,18.283c-56.018,88 -81.304,172.015 -75.856,252.043c5.41,79.993 32.908,143.847 82.357,191.611c38.182,36.881 78.66,55.886 121.426,57.005c42.756,1.11 77.436,-12.098 104.032,-39.632c15.831,-16.389 26.774,-36.414 32.828,-60.074c6.136,-23.763 7.033,-51.137 2.602,-82.029c-4.43,-30.891 -18.445,-79.186 -42.105,-144.764c-33.161,-91.953 -52.978,-162.146 -59.528,-210.653c-6.54,-48.498 -4.342,-93.262 6.876,-134.564c11.128,-41.207 32.297,-77.966 63.597,-110.37c53.282,-55.162 118.96,-82.6 197.019,-82.147c78.113,0.322 147.991,30.346 209.727,89.979c22.496,21.729 41.684,45.513 57.593,71.38c12.044,19.599 24.243,46.046 36.588,79.333c12.337,33.278 23.117,54.372 32.323,63.264c8.869,8.567 18.488,12.608 28.848,12.116c10.352,-0.502 27.792,-9 52.314,-25.503l15.35,14.827Z" style="fill:#12313f;fill-rule:nonzero;"/><path d="M2262.93,2670.51l282.363,272.743l13.325,-13.795c42.436,-43.932 59.333,-89.163 50.886,-135.52c-8.54,-46.446 -37.251,-98.437 -85.764,-155.978l18.726,-19.386l363.184,350.81l-18.725,19.387c-43.502,-34.054 -84.228,-56.738 -122.179,-68.052c-37.857,-11.222 -69.554,-12.331 -94.999,-3.417c-25.499,8.968 -54.16,30.018 -86.056,63.04l195.359,188.704c38.21,36.908 63.085,57.822 74.738,62.814c11.644,5.002 24.511,5.736 38.501,2.123c13.972,-3.593 30.604,-15.19 49.682,-34.942l39.966,-41.375c62.509,-64.715 97.457,-131.069 105.211,-199.07c7.578,-68.007 -10.983,-140.065 -55.964,-216.442l18.274,-18.918l190.344,244.125l-578.269,598.666l-18.918,-18.274l22.199,-22.982c19.404,-20.088 31.477,-39.71 36.098,-58.925c3.782,-13.474 2.21,-28.152 -4.798,-44.136c-4.529,-11.616 -24.157,-34.215 -58.996,-67.867l-456.276,-440.73c-31.374,-30.306 -51.499,-48.079 -60.254,-53.258c-15.281,-8.171 -30.547,-10.733 -45.882,-7.788c-22.064,3.726 -43.938,16.813 -65.649,39.289l-22.199,22.983l-18.918,-18.274l560.086,-579.842l205.1,198.112l-18.825,19.489c-59.603,-38.563 -108.955,-59.441 -148.053,-62.631c-39.099,-3.189 -79.54,6.628 -121.412,29.362c-24.542,13.224 -62.189,46.015 -112.82,98.432l-69.086,71.523Z" style="fill:#12313f;fill-rule:nonzero;"/><path d="M13485.8,14399.2l-18.927,-18.282c11.49,-13.938 18.423,-28.294 20.847,-43.079c2.424,-14.785 0.602,-31.678 -5.445,-50.663c-2.111,-6.005 -18.173,-42.266 -48.194,-108.774l-362.68,-769.99l19.242,-19.921l612.85,260.192l-264.481,-620.849l18.273,-18.918l786.257,319.197c79.384,31.784 129.38,48.938 150.195,51.285c20.878,2.263 42.8,-6.433 65.92,-26.282l18.927,18.283l-290.112,300.344l-18.927,-18.282c22.656,-24.823 34.553,-44.468 35.593,-58.851c1.131,-14.478 -3.349,-26.408 -13.229,-35.951c-12.971,-12.529 -48.463,-30.7 -106.512,-54.548l-467.839,-189.22l157.831,362.759l101.312,42.519c55.341,23.222 93.87,37.086 115.579,41.58c21.699,4.487 40.825,3.953 57.306,-1.49c16.462,-5.461 35.015,-18.858 55.731,-40.304l18.927,18.282l-324.125,335.558l-18.927,-18.283c22.35,-23.832 36.76,-42.498 43.221,-56.009c4.523,-9.462 5.943,-18.934 4.267,-28.463c-1.684,-9.521 -6.108,-17.741 -13.273,-24.661c-7.848,-7.581 -39.279,-23.133 -94.321,-46.682l-450.273,-191.027l188.154,399.962c19.175,41.565 33.079,69.134 41.703,82.733c8.615,13.59 17.69,24.999 27.243,34.226c13.982,13.506 29.59,19.35 46.817,17.559c17.215,-1.799 39.175,-15.818 65.839,-42.054l18.927,18.282l-173.696,179.822Z" style="fill:#12313f;fill-rule:nonzero;"/><path d="M2609.19,14180.8l72.759,-760.151l-287.659,297.806c-40.13,41.545 -61.293,75.412 -63.519,101.575c-2.708,35.564 15.552,71.629 54.722,108.163l-18.255,18.899l-229.169,-221.361l18.255,-18.898c32.979,24.595 57.37,38.777 73.153,42.509c15.821,3.768 33.04,1.628 51.66,-6.384c18.618,-8.03 43.718,-28.374 75.298,-61.068l557.064,-576.713l17.392,16.798l-87.995,1029.8l425.324,-440.327c38.492,-39.85 55.36,-75.568 50.596,-107.144c-4.756,-31.585 -18.901,-58.735 -42.436,-81.468l-16.371,-15.813l18.264,-18.909l246.045,237.662l-18.264,18.909c-38.518,-36.553 -72.686,-54.407 -102.489,-53.595c-29.803,0.848 -62.472,19.638 -98.005,56.425l-472.202,488.858l-2.932,32.722c-3.101,32.56 -1.809,57.161 3.848,73.813c5.657,16.652 18.738,35.552 39.215,56.653l-18.255,18.899l-246.044,-237.662Z" style="fill:#12313f;fill-rule:nonzero;"/><g><path d="M7232.12,1277.13c-0.501,0.176 -1.034,0.313 -1.586,0.404c-0.531,0.091 -1.083,0.137 -1.665,0.128c-1.777,-0.027 -3.185,-0.4 -4.224,-1.134c-1.018,-0.75 -1.512,-1.744 -1.493,-2.99c0.019,-1.262 0.543,-2.24 1.582,-2.943c1.061,-0.719 2.48,-1.064 4.257,-1.038c0.582,0.009 1.132,0.071 1.661,0.178c0.549,0.116 1.077,0.261 1.573,0.452l-0.025,1.621c-0.495,-0.252 -0.991,-0.443 -1.488,-0.573c-0.476,-0.129 -0.984,-0.198 -1.535,-0.207c-0.977,-0.014 -1.75,0.211 -2.339,0.669c-0.568,0.443 -0.847,1.073 -0.859,1.884c-0.012,0.795 0.248,1.433 0.802,1.908c0.576,0.46 1.341,0.693 2.318,0.708c0.551,0.008 1.061,-0.03 1.54,-0.13c0.501,-0.115 1.003,-0.298 1.506,-0.558l-0.025,1.621Z" style="fill:#12313f;fill-rule:nonzero;"/><path d="M7229.6,1273.27c-0.228,-0.08 -0.445,-0.145 -0.663,-0.194c-0.228,-0.041 -0.446,-0.068 -0.664,-0.071c-0.665,-0.01 -1.187,0.151 -1.545,0.466c-0.337,0.301 -0.51,0.742 -0.519,1.308l-0.04,2.691l-2.578,-0.039l0.088,-5.841l2.578,0.039l-0.015,0.948c0.307,-0.378 0.675,-0.648 1.093,-0.81c0.44,-0.177 0.961,-0.26 1.543,-0.252l0.291,0.005c0.104,0.001 0.249,0.019 0.415,0.037l0.016,1.713Z" style="fill:#12313f;fill-rule:nonzero;"/><path d="M7231.58,1274.61l-0.008,0.52l-5.944,-0.09c0.076,0.453 0.289,0.792 0.65,1.02c0.35,0.211 0.868,0.319 1.533,0.329c0.551,0.008 1.103,-0.03 1.665,-0.128c0.553,-0.114 1.127,-0.289 1.713,-0.525l-0.022,1.437c-0.584,0.175 -1.189,0.304 -1.793,0.371c-0.614,0.067 -1.208,0.104 -1.789,0.095c-1.445,-0.021 -2.563,-0.298 -3.355,-0.845c-0.803,-0.563 -1.186,-1.334 -1.171,-2.312c0.014,-0.933 0.409,-1.677 1.197,-2.215c0.809,-0.539 1.893,-0.798 3.255,-0.777c1.247,0.018 2.241,0.309 2.98,0.87c0.74,0.562 1.103,1.317 1.089,2.25l0,-0Zm-2.567,-0.681c0.005,-0.344 -0.147,-0.622 -0.445,-0.833c-0.278,-0.226 -0.64,-0.346 -1.076,-0.352c-0.499,-0.008 -0.906,0.093 -1.21,0.287c-0.315,0.202 -0.506,0.482 -0.595,0.848l3.326,0.05Z" style="fill:#12313f;fill-rule:nonzero;"/><path d="M7227.21,1274.85c-0.53,-0.008 -0.937,0.062 -1.209,0.196c-0.251,0.119 -0.379,0.315 -0.383,0.575c-0.003,0.23 0.088,0.415 0.283,0.555c0.216,0.126 0.517,0.192 0.912,0.198c0.467,0.007 0.875,-0.11 1.211,-0.349c0.336,-0.24 0.507,-0.551 0.513,-0.941l0.003,-0.214l-1.33,-0.02Zm3.918,-0.645l-0.05,3.334l-2.577,-0.039l0.013,-0.856c-0.338,0.347 -0.737,0.593 -1.176,0.747c-0.418,0.154 -0.939,0.23 -1.542,0.221c-0.831,-0.012 -1.514,-0.191 -2.029,-0.55c-0.493,-0.375 -0.735,-0.837 -0.727,-1.388c0.01,-0.688 0.33,-1.195 0.979,-1.514c0.639,-0.312 1.649,-0.465 3.042,-0.444l1.496,0.022l0.002,-0.122c0.005,-0.306 -0.158,-0.522 -0.489,-0.65c-0.31,-0.142 -0.787,-0.226 -1.452,-0.236c-0.561,-0.008 -1.071,0.03 -1.54,0.1c-0.479,0.076 -0.907,0.185 -1.293,0.317l0.021,-1.407c0.521,-0.092 1.062,-0.153 1.624,-0.19c0.552,-0.053 1.103,-0.075 1.664,-0.067c1.434,0.022 2.47,0.252 3.108,0.689c0.628,0.423 0.94,1.101 0.926,2.033l0,0Z" style="fill:#12313f;fill-rule:nonzero;"/><path d="M7226.49,1269.95l-0.026,1.682l2.619,0.039l-0.02,1.315l-2.618,-0.039l-0.038,2.508c-0.004,0.267 0.055,0.452 0.199,0.553c0.165,0.087 0.466,0.13 0.913,0.136l1.289,0.02l-0.021,1.345l-2.161,-0.032c-1.029,-0.016 -1.744,-0.179 -2.155,-0.491c-0.411,-0.312 -0.611,-0.835 -0.6,-1.569l0.038,-2.508l-1.247,-0.019l0.02,-1.315l1.247,0.019l0.025,-1.682l2.536,0.038Z" style="fill:#12313f;fill-rule:nonzero;"/><path d="M7229.12,1272.53l0.047,-3.15l2.536,0.038l-0.123,8.135l-2.535,-0.038l0.013,-0.856c-0.369,0.346 -0.758,0.593 -1.176,0.747c-0.418,0.154 -0.907,0.231 -1.458,0.223c-0.998,-0.015 -1.815,-0.311 -2.44,-0.894c-0.605,-0.575 -0.895,-1.328 -0.881,-2.246c0.014,-0.894 0.326,-1.624 0.948,-2.188c0.642,-0.556 1.468,-0.834 2.465,-0.819c0.52,0.007 0.997,0.099 1.41,0.265c0.434,0.175 0.835,0.434 1.194,0.783l-0,0Zm-1.762,3.767c0.551,0.008 0.969,-0.123 1.254,-0.409c0.306,-0.302 0.468,-0.735 0.477,-1.309c0.008,-0.55 -0.141,-0.965 -0.438,-1.26c-0.276,-0.31 -0.69,-0.47 -1.24,-0.478c-0.53,-0.008 -0.948,0.139 -1.254,0.44c-0.285,0.286 -0.427,0.697 -0.435,1.248c-0.009,0.573 0.12,1.011 0.396,1.321c0.297,0.295 0.71,0.439 1.24,0.447Z" style="fill:#12313f;fill-rule:nonzero;"/><path d="M7227.85,1276.3c0.551,0.008 0.969,-0.124 1.254,-0.41c0.306,-0.301 0.468,-0.735 0.477,-1.308c0.008,-0.551 -0.141,-0.966 -0.438,-1.261c-0.276,-0.31 -0.69,-0.469 -1.241,-0.477c-0.53,-0.008 -0.948,0.138 -1.254,0.44c-0.285,0.286 -0.426,0.697 -0.434,1.247c-0.009,0.574 0.12,1.012 0.396,1.322c0.297,0.295 0.71,0.439 1.24,0.447Zm-1.605,-3.818c0.337,-0.339 0.715,-0.586 1.134,-0.747c0.438,-0.154 0.939,-0.231 1.5,-0.223c0.966,0.015 1.762,0.318 2.398,0.893c0.625,0.583 0.936,1.322 0.923,2.216c-0.014,0.918 -0.348,1.662 -0.99,2.219c-0.653,0.563 -1.457,0.834 -2.424,0.82c-0.561,-0.009 -1.059,-0.101 -1.493,-0.268c-0.413,-0.166 -0.783,-0.424 -1.11,-0.781l-0.013,0.856l-2.578,-0.039l0.123,-8.135l2.577,0.039l-0.047,3.15Z" style="fill:#12313f;fill-rule:nonzero;"/><path d="M7222.64,1271.57l2.536,0.039l2.102,3.977l1.888,-3.917l2.536,0.038l-3.463,6.341c-0.343,0.645 -0.744,1.098 -1.185,1.359c-0.451,0.253 -1.045,0.382 -1.793,0.37l-1.455,-0.022l0.019,-1.253l0.79,0.011c0.436,0.007 0.759,-0.042 0.958,-0.138c0.189,-0.104 0.347,-0.27 0.465,-0.513l0.086,-0.182l-3.484,-6.11Z" style="fill:#12313f;fill-rule:nonzero;"/><path d="M7223.84,1269.63l7.399,0.111l-0.023,1.529l-4.655,-0.07l-0.022,1.437l4.365,0.066l-0.023,1.529l-4.365,-0.065l-0.05,3.303l-2.743,-0.042l0.117,-7.798Z" style="fill:#12313f;fill-rule:nonzero;"/><path d="M7223.72,1269.3l2.577,0.039l-0.122,8.135l-2.578,-0.039l0.123,-8.135Z" style="fill:#12313f;fill-rule:nonzero;"/><path d="M7228.95,1269.37l-0.018,1.224l-1.372,-0.021c-0.363,-0.006 -0.624,0.044 -0.792,0.141c-0.147,0.105 -0.212,0.264 -0.215,0.486l-0.006,0.428l2.203,0.033l-0.02,1.316l-2.203,-0.034l-0.068,4.527l-2.536,-0.038l0.068,-4.527l-1.247,-0.019l0.02,-1.315l1.247,0.019l0.006,-0.428c0.01,-0.627 0.246,-1.098 0.728,-1.396c0.504,-0.299 1.265,-0.44 2.293,-0.425l1.912,0.029Z" style="fill:#12313f;fill-rule:nonzero;"/><path d="M7227.45,1272.84c-0.561,-0.009 -0.989,0.138 -1.295,0.439c-0.285,0.286 -0.427,0.697 -0.435,1.248c-0.009,0.573 0.12,1.011 0.396,1.321c0.297,0.295 0.721,0.439 1.282,0.448c0.551,0.008 0.979,-0.123 1.295,-0.409c0.306,-0.301 0.469,-0.735 0.477,-1.308c0.008,-0.551 -0.141,-0.966 -0.438,-1.261c-0.307,-0.311 -0.731,-0.47 -1.282,-0.478Zm0.02,-1.346c1.382,0.021 2.449,0.312 3.189,0.874c0.761,0.547 1.144,1.294 1.13,2.25c-0.015,0.979 -0.421,1.737 -1.199,2.276c-0.756,0.524 -1.83,0.768 -3.212,0.747c-1.362,-0.02 -2.428,-0.296 -3.189,-0.843c-0.771,-0.562 -1.144,-1.333 -1.129,-2.311c0.014,-0.956 0.41,-1.692 1.197,-2.215c0.778,-0.539 1.852,-0.798 3.213,-0.778Z" style="fill:#12313f;fill-rule:nonzero;"/><path d="M7231.07,1272.65c0.307,-0.34 0.685,-0.602 1.135,-0.779c0.439,-0.192 0.939,-0.291 1.501,-0.283c0.883,0.013 1.555,0.238 2.027,0.673c0.492,0.42 0.733,1.013 0.721,1.785l-0.054,3.578l-2.577,-0.039l0.046,-3.058c0.022,-0.038 0.043,-0.076 0.044,-0.122l0.003,-0.214c0.006,-0.428 -0.072,-0.735 -0.236,-0.921c-0.163,-0.186 -0.432,-0.282 -0.785,-0.287c-0.499,-0.008 -0.896,0.139 -1.171,0.441c-0.254,0.287 -0.385,0.698 -0.393,1.248l-0.043,2.875l-2.578,-0.039l0.046,-3.058c0.01,-0.65 -0.067,-1.072 -0.23,-1.258c-0.143,-0.185 -0.401,-0.281 -0.786,-0.287c-0.478,-0.007 -0.854,0.14 -1.129,0.442c-0.254,0.287 -0.385,0.698 -0.393,1.248l-0.043,2.875l-2.578,-0.038l0.088,-5.842l2.578,0.039l-0.013,0.856c0.306,-0.339 0.653,-0.586 1.05,-0.749c0.419,-0.154 0.877,-0.231 1.376,-0.224c0.551,0.009 1.037,0.123 1.45,0.328c0.413,0.19 0.721,0.462 0.944,0.81l0,-0Z" style="fill:#12313f;fill-rule:nonzero;"/><path d="M7231.67,1273.97l-0.054,3.578l-2.577,-0.039l0.041,-2.721c0.008,-0.505 -0.008,-0.857 -0.026,-1.041c-0.028,-0.199 -0.078,-0.345 -0.16,-0.431c-0.081,-0.123 -0.225,-0.217 -0.411,-0.281c-0.165,-0.079 -0.352,-0.128 -0.539,-0.131c-0.561,-0.008 -0.989,0.139 -1.295,0.44c-0.286,0.301 -0.427,0.72 -0.435,1.247l-0.043,2.875l-2.577,-0.038l0.122,-8.135l2.577,0.038l-0.047,3.15c0.358,-0.338 0.767,-0.584 1.217,-0.746c0.439,-0.154 0.918,-0.231 1.417,-0.223c0.914,0.013 1.597,0.238 2.068,0.673c0.493,0.421 0.734,1.013 0.722,1.785l0,0Z" style="fill:#12313f;fill-rule:nonzero;"/><path d="M7223.84,1269.63l3.076,0.046l3.744,5.41l0.081,-5.353l2.618,0.04l-0.117,7.799l-3.076,-0.047l-3.744,-5.409l-0.08,5.352l-2.619,-0.04l0.117,-7.798Z" style="fill:#12313f;fill-rule:nonzero;"/><path d="M7223.55,1275.13l0.053,-3.547l2.577,0.039l-0.041,2.721c-0.007,0.475 -0.001,0.819 0.026,1.041c0.018,0.207 0.078,0.353 0.16,0.431c0.102,0.124 0.246,0.233 0.411,0.312c0.166,0.063 0.352,0.097 0.581,0.1c0.519,0.008 0.937,-0.139 1.254,-0.44c0.306,-0.301 0.468,-0.712 0.476,-1.247l0.043,-2.875l2.536,0.038l-0.088,5.842l-2.536,-0.038l0.013,-0.857c-0.4,0.346 -0.82,0.592 -1.258,0.746c-0.418,0.155 -0.898,0.231 -1.417,0.224c-0.915,-0.014 -1.619,-0.224 -2.111,-0.644c-0.472,-0.435 -0.691,-1.05 -0.679,-1.846l-0,0Z" style="fill:#12313f;fill-rule:nonzero;"/><path d="M7231.67,1273.97l-0.054,3.578l-2.577,-0.039l0.041,-2.721c0.008,-0.505 -0.008,-0.857 -0.026,-1.041c-0.028,-0.199 -0.078,-0.345 -0.16,-0.431c-0.081,-0.123 -0.225,-0.217 -0.411,-0.281c-0.165,-0.079 -0.352,-0.128 -0.539,-0.131c-0.561,-0.008 -0.989,0.139 -1.295,0.44c-0.286,0.301 -0.427,0.72 -0.435,1.247l-0.043,2.875l-2.577,-0.038l0.087,-5.842l2.578,0.039l-0.013,0.856c0.358,-0.338 0.767,-0.585 1.217,-0.746c0.439,-0.154 0.918,-0.231 1.417,-0.224c0.914,0.014 1.597,0.239 2.068,0.674c0.493,0.42 0.734,1.013 0.722,1.785l0,0Z" style="fill:#12313f;fill-rule:nonzero;"/><path d="M7223.84,1269.63l4.531,0.068c1.351,0.02 2.387,0.265 3.108,0.72c0.71,0.438 1.065,1.071 1.053,1.881c-0.013,0.818 -0.386,1.448 -1.11,1.88c-0.734,0.417 -1.776,0.616 -3.127,0.596l-1.788,-0.027l-0.04,2.722l-2.744,-0.042l0.117,-7.798Zm2.722,1.509l-0.033,2.171l1.497,0.023c0.519,0.008 0.926,-0.078 1.209,-0.257c0.304,-0.195 0.465,-0.467 0.47,-0.819c0.005,-0.344 -0.147,-0.614 -0.445,-0.802c-0.278,-0.188 -0.682,-0.286 -1.202,-0.294l-1.496,-0.022Z" style="fill:#12313f;fill-rule:nonzero;"/><path d="M7223.68,1271.59l2.578,0.039l-0.087,5.749c-0.012,0.773 -0.291,1.357 -0.817,1.762c-0.505,0.421 -1.246,0.624 -2.212,0.609l-1.289,-0.019l0.019,-1.254l0.457,0.007c0.468,0.007 0.791,-0.072 0.96,-0.23c0.189,-0.143 0.298,-0.447 0.305,-0.913l0.086,-5.75Zm0.035,-2.294l2.577,0.039l-0.023,1.529l-2.577,-0.039l0.023,-1.529Z" style="fill:#12313f;fill-rule:nonzero;"/><path d="M7230.12,1271.87l-0.023,1.498c-0.33,-0.165 -0.682,-0.293 -1.034,-0.382c-0.362,-0.082 -0.725,-0.134 -1.079,-0.139c-0.727,-0.011 -1.28,0.134 -1.669,0.434c-0.4,0.3 -0.593,0.717 -0.601,1.245c-0.008,0.55 0.172,0.981 0.563,1.293c0.38,0.312 0.928,0.473 1.655,0.484c0.385,0.006 0.76,-0.027 1.125,-0.106c0.354,-0.071 0.689,-0.203 1.003,-0.382l-0.023,1.529c-0.397,0.116 -0.793,0.187 -1.209,0.227c-0.417,0.054 -0.833,0.079 -1.248,0.073c-1.445,-0.022 -2.563,-0.299 -3.355,-0.846c-0.803,-0.563 -1.186,-1.334 -1.171,-2.312c0.014,-0.956 0.42,-1.692 1.239,-2.215c0.808,-0.538 1.935,-0.796 3.379,-0.775c0.416,0.007 0.831,0.043 1.246,0.111c0.415,0.052 0.809,0.134 1.202,0.263l-0,-0Z" style="fill:#12313f;fill-rule:nonzero;"/><path d="M8530.82,2145.06c-96.273,-1.449 -173.718,-60.248 -172.652,-131.078c1.066,-70.83 80.249,-127.27 176.52,-125.821c96.27,1.449 173.718,60.248 172.652,131.078c-1.066,70.829 -80.249,127.27 -176.52,125.821Zm3.223,-214.092c-64.181,-0.967 -116.969,36.66 -117.68,83.88c-0.711,47.221 50.921,86.419 115.102,87.386c64.181,0.966 116.969,-36.661 117.68,-83.881c0.711,-47.221 -50.921,-86.419 -115.102,-87.385Z" style="fill:#12313f;fill-rule:nonzero;"/><path d="M8053.15,2159.28c-2.078,-0.031 -4.175,-0.231 -6.238,-0.591l-571.805,-101.357c-13.311,-2.357 -22.689,-11.201 -22.537,-21.256l9.119,-605.087c0.097,-6.484 4.18,-12.564 11.121,-16.52c6.93,-3.964 15.953,-5.381 24.547,-3.852l571.805,101.357c13.311,2.357 22.689,11.201 22.538,21.256l-9.119,605.068c-0.098,6.484 -4.181,12.563 -11.121,16.52c-5.264,3.01 -11.731,4.549 -18.299,4.451l-0.011,0.011Zm-542.119,-139.537l513.738,91.068l8.449,-561.243l-513.739,-91.061l-8.448,561.236Z" style="fill:#12313f;fill-rule:nonzero;"/><path d="M8636.88,1470.12c-2.11,-0.032 -4.238,-0.232 -6.363,-0.616l-571.781,-102.925c-15.643,-2.812 -25.343,-14.407 -21.668,-25.892c3.676,-11.485 19.353,-18.522 34.986,-15.702l571.782,102.925c15.643,2.813 25.343,14.407 21.657,25.892c-3.164,9.925 -15.279,16.519 -28.601,16.318l-0.012,-0Z" style="fill:#12313f;fill-rule:nonzero;"/><path d="M7490.42,1452.86c-13.323,-0.201 -25.244,-7.156 -28.118,-17.172c-3.339,-11.59 6.706,-22.887 22.437,-25.229l574.62,-85.667c15.71,-2.348 31.168,5.15 34.498,16.748c3.339,11.59 -6.706,22.887 -22.437,25.228l-574.621,85.668c-2.135,0.319 -4.279,0.455 -6.378,0.424l-0.001,-0Z" style="fill:#12313f;fill-rule:nonzero;"/><path d="M7816.08,1962.99c-1.548,-0.024 -3.105,-0.139 -4.651,-0.346l-179.116,-24.11c-14.067,-1.894 -24.282,-10.996 -24.124,-21.501l2.92,-193.975c0.098,-6.514 4.222,-12.609 11.194,-16.564c6.972,-3.956 16.047,-5.349 24.661,-3.774l178.987,32.703c13.216,2.417 22.491,11.221 22.34,21.214l-2.78,185.38c-0.095,6.277 -3.925,12.177 -10.492,16.147c-5.35,3.238 -12.08,4.927 -18.938,4.823l-0.001,0.003Zm-149.423,-63.301l121.026,16.291l2.154,-143.129l-120.938,-22.101l-2.242,148.939Z" style="fill:#12313f;fill-rule:nonzero;"/><path d="M8076.32,1706.92c-13.167,-0.198 -24.997,-6.999 -28.04,-16.879c-3.547,-11.555 6.281,-22.954 21.952,-25.457l539.717,-86.193c15.66,-2.502 31.254,4.837 34.814,16.393c3.547,11.555 -6.281,22.954 -21.952,25.457l-539.717,86.193c-2.282,0.363 -4.55,0.52 -6.774,0.487l0,-0.001Z" style="fill:#12313f;fill-rule:nonzero;"/><path d="M8074.62,1820.07c-13.167,-0.198 -24.997,-6.999 -28.04,-16.879c-3.547,-11.555 6.281,-22.954 21.952,-25.457l539.716,-86.193c15.661,-2.502 31.255,4.837 34.814,16.393c3.548,11.555 -6.28,22.954 -21.951,25.457l-539.717,86.193c-2.282,0.363 -4.55,0.52 -6.774,0.487l-0,-0.001Z" style="fill:#12313f;fill-rule:nonzero;"/><path d="M8050.73,1706.52c-2.141,-0.033 -4.3,-0.241 -6.466,-0.633l-562.524,-102.786c-15.632,-2.858 -25.28,-14.474 -21.542,-25.951c3.738,-11.476 19.446,-18.467 35.067,-15.608l562.524,102.785c15.632,2.858 25.279,14.475 21.542,25.952c-3.226,9.893 -15.32,16.441 -28.6,16.241l-0.001,-0Z" style="fill:#12313f;fill-rule:nonzero;"/><path d="M8049.02,1819.69c-2.141,-0.032 -4.3,-0.24 -6.466,-0.632l-562.524,-102.786c-15.631,-2.858 -25.279,-14.475 -21.541,-25.951c3.738,-11.477 19.445,-18.459 35.067,-15.609l562.523,102.786c15.632,2.858 25.28,14.475 21.542,25.951c-3.226,9.886 -15.32,16.441 -28.6,16.241l-0.001,0Z" style="fill:#12313f;fill-rule:nonzero;"/><path d="M8387.09,1504.07c-2.171,-0.033 -4.361,-0.249 -6.559,-0.649l-326.786,-60.555l-148.381,15.929c-15.898,1.71 -30.755,-6.398 -33.218,-18.105c-2.465,-11.7 8.405,-22.572 24.293,-24.275l154.085,-16.547c3.768,-0.402 7.612,-0.26 11.323,0.431l332.385,61.595c15.621,2.896 25.206,14.535 21.426,26.002c-3.256,9.855 -15.339,16.372 -28.577,16.173l0.009,0.001Z" style="fill:#12313f;fill-rule:nonzero;"/><path d="M8053.15,2159.28c-6.567,-0.099 -12.986,-1.832 -18.156,-4.999c-6.818,-4.164 -10.717,-10.363 -10.619,-16.847l9.109,-605.088c0.151,-10.054 9.791,-18.604 23.167,-20.568l574.597,-84.099c8.625,-1.27 17.612,0.425 24.42,4.589c6.808,4.163 10.716,10.363 10.619,16.846l-5.816,386.298c-0.106,7.034 -4.902,13.554 -12.829,17.427c-7.927,3.873 -17.979,4.624 -26.89,1.996c-27.196,-8.033 -55.913,-12.328 -85.344,-12.771c-133.071,-2.003 -242.523,76.021 -243.997,173.918c-0.337,22.41 9.029,48.599 27.82,77.82c3.829,5.961 3.746,12.858 -0.219,18.71c-3.966,5.859 -11.388,10.022 -20.128,11.298l-239.452,35.046c-2.095,0.32 -4.196,0.457 -6.275,0.425l-0.007,-0.001Zm38.271,-608.838l-8.448,561.243l169.261,-24.776c-13.125,-25.764 -19.379,-49.428 -19.043,-71.798c1.83,-121.515 137.687,-218.353 302.848,-215.867c22.634,0.341 44.927,2.52 66.655,6.502l4.991,-330.866l-516.264,75.562Z" style="fill:#12313f;fill-rule:nonzero;"/><path d="M8528.71,2359.17l-0.063,-0.001c-8.49,-0.143 -16.513,-3.009 -21.949,-7.84c-13.273,-11.794 -27.165,-23.879 -41.866,-36.673c-109.25,-95.036 -233.077,-202.751 -231.62,-299.521c1.829,-121.515 137.687,-218.353 302.847,-215.866c165.161,2.486 298.016,103.361 296.186,224.884c-1.483,98.516 -132.878,206.169 -248.823,301.137c-11.134,9.117 -22.037,18.053 -32.563,26.774c-5.589,4.642 -13.684,7.235 -22.143,7.108l-0.006,-0.002Zm6.682,-517.083c-133.071,-2.004 -242.523,76.02 -243.997,173.918c-1.215,80.732 120.172,186.329 217.715,271.178c6.997,6.086 13.82,12.016 20.478,17.844c3.431,-2.816 6.894,-5.654 10.377,-8.508c103.737,-84.993 232.838,-190.765 234.079,-273.246c1.474,-97.906 -105.579,-179.189 -238.651,-181.192l-0.001,0.006Z" style="fill:#12313f;fill-rule:nonzero;"/><path d="M8768.92,2362.78l-1105.7,-16.645c-16.066,-0.242 -28.955,-10.026 -28.777,-21.847c0.178,-11.822 13.354,-21.213 29.421,-20.971l1105.7,16.644c16.066,0.242 28.955,10.026 28.777,21.848c-0.178,11.821 -13.343,21.213 -29.421,20.971Z" style="fill:#12313f;fill-rule:nonzero;"/><path d="M7780.9,2262.26l-290.991,-4.38c-16.066,-0.242 -28.954,-10.026 -28.776,-21.847c0.178,-11.822 13.353,-21.214 29.421,-20.972l290.99,4.381c16.066,0.242 28.955,10.026 28.777,21.847c-0.178,11.822 -13.344,21.213 -29.421,20.971Z" style="fill:#12313f;fill-rule:nonzero;"/><path d="M7607.26,2195.41l-116.391,-1.752c-16.066,-0.242 -28.955,-10.026 -28.777,-21.847c0.178,-11.822 13.354,-21.213 29.422,-20.971l116.39,1.752c16.067,0.241 28.955,10.025 28.777,21.847c-0.178,11.821 -13.343,21.213 -29.421,20.971Z" style="fill:#12313f;fill-rule:nonzero;"/></g></g></svg>