<?xml version="1.0" encoding="UTF-8" standalone="no"?><!DOCTYPE svg PUBLIC "-//W3C//DTD SVG 1.1//EN" "http://www.w3.org/Graphics/SVG/1.1/DTD/svg11.dtd"><svg width="100%" height="100%" viewBox="0 0 5257 5257" version="1.1" xmlns="http://www.w3.org/2000/svg" xmlns:xlink="http://www.w3.org/1999/xlink" xml:space="preserve" xmlns:serif="http://www.serif.com/" style="fill-rule:evenodd;clip-rule:evenodd;stroke-linejoin:round;stroke-miterlimit:2;"><path d="M4241.28,3203.7l0.521,93.593l-72.266,58.008c235.027,292.943 184.375,797.799 158.073,972.291c-174.48,26.185 -679.428,76.758 -972.266,-158.828l-58.464,72.605l-92.708,-9.923c-39.973,373.712 -433.723,695.469 -575.911,800.274c-142.058,-104.57 -535.417,-425.521 -575.651,-800.274l-92.708,9.923l-58.465,-72.605c-292.969,235.769 -797.785,185.053 -972.134,158.828c-26.303,-174.492 -76.823,-679.257 158.853,-972.201l-72.655,-58.463l9.896,-92.681c-373.569,-40.013 -695.444,-433.751 -800.262,-575.873c104.558,-142.136 425.652,-535.6 800.262,-575.703l-9.896,-92.683l72.655,-58.451c-235.676,-292.954 -185.156,-797.72 -158.853,-972.212c174.349,-26.264 679.165,-76.85 972.134,158.828l58.465,-72.605l92.708,9.922c39.974,-373.66 433.723,-695.429 575.912,-800.273c142.056,104.478 534.895,424.245 575.129,790.351l93.62,-0.481l57.942,72.226c292.839,-235.092 797.787,-184.232 972.397,-157.968c26.302,174.44 76.823,679.258 -158.985,972.212l72.657,58.451l-9.896,92.683c373.697,40.013 695.443,433.71 800.26,575.833c-104.428,142.031 -424.218,535 -790.364,575.196Zm1015.62,-575.287l-32.943,-50.756c-15.755,-24.206 -359.375,-543.763 -830.73,-680.65c248.047,-487.995 108.855,-1029.78 93.621,-1126.97c-96.485,-15.17 -639.844,-154.48 -1127.09,92.916c-169.14,-519.075 -652.604,-806.028 -731.379,-862.956c-78.776,57.332 -562.631,343.803 -731.381,863.633c-488.02,-248.178 -1029.82,-108.751 -1126.95,-93.593c-15.235,96.354 -154.428,639.686 93.489,1126.97c-519.01,168.75 -806.77,652.655 -863.541,731.457c57.29,78.802 343.749,562.592 863.541,731.446c-248.046,487.995 -108.854,1029.78 -93.489,1126.98c239.713,66.16 825.39,91.928 1126.82,-93.659c168.751,519.166 652.735,806.849 731.511,863.699c78.775,-57.345 562.76,-343.841 731.51,-863.686c300.782,185.547 887.761,159.831 1126.95,93.646c15.234,-96.302 154.426,-639.791 -92.969,-1127.07c519.27,-169.205 806.12,-652.591 863.021,-731.406Z" style="fill:#a6a6a6;fill-rule:nonzero;"/></svg>